<svg id="Group_44" data-name="Group 44" xmlns="http://www.w3.org/2000/svg" width="85.944" height="62.256" viewBox="0 0 85.944 62.256">
  <path id="Path_282" data-name="Path 282" d="M108.221,133.85a2,2,0,0,0,2.509-1.3l1.476-4.649a1.985,1.985,0,0,0-.443-1.943,1.889,1.889,0,0,0-.861-.566,1.979,1.979,0,0,0-2.509,1.3l-1.476,4.649a1.7,1.7,0,0,0-.074.492A2,2,0,0,0,108.221,133.85Z" transform="translate(-42.152 -125.29)" fill="#fff"/>
  <path id="Path_283" data-name="Path 283" d="M113.67,135.163l3.911-2.9a2.005,2.005,0,0,0,.418-2.8l-.148-.148a2,2,0,0,0-2.657-.271l-3.911,2.9a2.049,2.049,0,0,0-.812,1.476,2.184,2.184,0,0,0,.369,1.328A2.061,2.061,0,0,0,113.67,135.163Z" transform="translate(-36.851 -120.38)" fill="#fff"/>
  <path id="Path_284" data-name="Path 284" d="M120.184,134.754a2.068,2.068,0,0,0-1.476-.664l-4.87.025a1.975,1.975,0,0,0-1.968,1.894v.148a2.005,2.005,0,0,0,2.017,1.992l4.87-.025a2.005,2.005,0,0,0,1.992-2.017A2.121,2.121,0,0,0,120.184,134.754Z" transform="translate(-34.806 -112.444)" fill="#fff"/>
  <path id="Path_285" data-name="Path 285" d="M97.907,132.289l3.96,2.829a2.006,2.006,0,0,0,2.657-2.976,1.694,1.694,0,0,0-.32-.271l-3.96-2.829a2.011,2.011,0,0,0-2.8.467,2.108,2.108,0,0,0-.369,1.058A2.062,2.062,0,0,0,97.907,132.289Z" transform="translate(-56.411 -120.359)" fill="#fff"/>
  <path id="Path_286" data-name="Path 286" d="M102.941,131.315l.418,1.23a2.007,2.007,0,0,0,3.813-1.254l-1.55-4.624a.769.769,0,0,0-.123-.246,1.982,1.982,0,0,0-2.411-1.008,2,2,0,0,0-1.279,2.534Z" transform="translate(-49.638 -125.264)" fill="#fff"/>
  <path id="Path_287" data-name="Path 287" d="M117.594,141.591l-3.96-2.829a2.007,2.007,0,0,0-2.8.467,2.109,2.109,0,0,0-.369,1.058,2.015,2.015,0,0,0,.836,1.746l3.96,2.829a2.006,2.006,0,0,0,2.657-2.976A1.822,1.822,0,0,0,117.594,141.591Z" transform="translate(-36.865 -106.17)" fill="#fff"/>
  <path id="Path_288" data-name="Path 288" d="M144.469,149.966a7.936,7.936,0,0,0-9.126-4.8,21.507,21.507,0,0,0-16.874-11.807,19.344,19.344,0,0,0-2.288-.123,21.514,21.514,0,0,0-19.309,12.225,15.257,15.257,0,1,0-1.082,30.476h47.1a13.037,13.037,0,0,0,1.574-25.975Zm-1.55,21.72H95.84A11.059,11.059,0,0,1,84.8,160.642a11.782,11.782,0,0,1,.344-2.78A11.025,11.025,0,0,1,95.815,149.6a11.207,11.207,0,0,1,2.017.2l1.722.32.615-1.648a17.212,17.212,0,0,1,16.013-11.044,16.8,16.8,0,0,1,1.82.1,17.5,17.5,0,0,1,5.264,1.451,17.254,17.254,0,0,1,8.954,9.568l.861,2.312,2.14-1.23a3.556,3.556,0,0,1,2.706-.369,3.708,3.708,0,0,1,2.8,3.025L141,154.05h1.943a8.819,8.819,0,0,1-.025,17.637Z" transform="translate(-80.54 -113.685)" fill="#fff"/>
  <path id="Path_289" data-name="Path 289" d="M107.46,147.748a10.095,10.095,0,0,1,9.4,5.19c.443.1.885.2,1.3.32a12.342,12.342,0,1,0-17.71-13.111A23.822,23.822,0,0,1,107.46,147.748ZM105.173,135.4c1.427-1.623,3.37-2.214,4.354-1.353s.615,2.878-.812,4.477c-1.427,1.623-3.37,2.214-4.354,1.353S103.746,137.023,105.173,135.4Z" transform="translate(-51.476 -118.575)" fill="#fff"/>
</svg>
