<svg xmlns="http://www.w3.org/2000/svg" width="68.765" height="77.778" viewBox="0 0 68.765 77.778">
  <g id="Group_17" data-name="Group 17" transform="translate(-27.64 -386.46)">
    <path id="Path_79" data-name="Path 79" d="M46.014,408.11h-.075l-.019,37.124h1.39V440.84l2.986,2.61,1.915-2.2-4.9-4.263v-3.361l6.553,5.69,1.915-2.2-8.469-7.361v-2.967l1.746-2.028-1.746-1.521v-3.361l3.4,2.967,1.915-2.2-5.314-4.619v-7.267l-1.127-.657Z" transform="translate(16.046 19.004)" fill="#fff"/>
    <path id="Path_80" data-name="Path 80" d="M50.369,408.11l-.6.338-.038-.075-.563.338-.019,7.323-5.314,4.619,1.915,2.2,3.4-2.967v3.361l-1.746,1.54,1.746,2.009v2.967l-8.469,7.361,1.9,2.2,6.572-5.69v3.361l-4.92,4.263,1.915,2.2,3-2.61v4.394H50.52l.019-37.124Z" transform="translate(11.446 19.004)" fill="#c0e3ff"/>
    <path id="Path_81" data-name="Path 81" d="M60.2,407.7l-.038-.075L28,426.173l.695,1.183,3.793-2.178-.751,3.906,2.854.545,1.239-6.385,2.911-1.671L37.088,430.1l2.873.563,2.122-11.023,2.573-1.483,2.629.507.451-2.272,2.911-1.69-.864,4.432,2.873.563,1.333-6.91,6.309-3.643v-1.3Z" transform="translate(0.316 18.574)" fill="#fff"/>
    <path id="Path_82" data-name="Path 82" d="M60.407,407.882l-.62-.338.056-.075-.563-.319-6.347,3.643L46.268,408.5l-.939,2.76,4.263,1.465L46.681,414.4l-2.2-.751-.883,2.535-2.573,1.483L30.419,414l-.958,2.76,8.225,2.835-2.911,1.671-6.14-2.122-.958,2.76,3.756,1.3-3.793,2.2.676,1.183,32.166-18.553Z" transform="translate(0 18.162)" fill="#c0e3ff"/>
    <path id="Path_83" data-name="Path 83" d="M60.456,415.436l.038-.056L28.346,396.79l-.676,1.2,3.793,2.178-3.756,1.314.939,2.76,6.159-2.141,2.911,1.69-8.225,2.835.958,2.76,10.591-3.662,2.591,1.484.864,2.535,2.2-.751,2.911,1.671-4.263,1.465.939,2.76,6.666-2.291,6.309,3.643,1.127-.657Z" transform="translate(0.026 9.068)" fill="#fff"/>
    <path id="Path_84" data-name="Path 84" d="M60.272,417.319v-.695h.075v-.657L54,412.305l-1.333-6.929-2.854.563.845,4.432L47.766,408.7l-.451-2.291-2.629.507-2.573-1.483L39.992,394.41l-2.873.563,1.652,8.525-2.911-1.69-1.239-6.366-2.854.545.751,3.906-3.793-2.2-.695,1.183,32.148,18.59Z" transform="translate(0.342 6.978)" fill="#c0e3ff"/>
    <path id="Path_85" data-name="Path 85" d="M50.494,423.6h.075l.019-37.143-1.371.019v4.375l-3-2.61-1.915,2.2,4.92,4.281v3.342l-6.572-5.69-1.915,2.2,8.469,7.361.019,2.967-1.765,2.028,1.746,1.521v3.361l-3.4-2.967-1.915,2.216,5.314,4.619v7.267l1.127.657Z" transform="translate(11.49 0)" fill="#fff"/>
    <path id="Path_86" data-name="Path 86" d="M46.139,423.6l.6-.357.038.075L47.36,423v-7.323l5.314-4.619-1.915-2.2-3.4,2.948v-3.361l1.746-1.521L47.36,404.9v-2.967l8.488-7.361-1.915-2.2-6.572,5.708v-3.361l4.92-4.263-1.915-2.216-3,2.61v-4.375l-1.371-.019L45.97,423.6Z" transform="translate(16.09 0)" fill="#c0e3ff"/>
    <path id="Path_87" data-name="Path 87" d="M46.785,417.425l.038.056,32.166-18.534-.695-1.2-3.793,2.2.751-3.906-2.854-.563-1.239,6.384-2.911,1.69L69.9,395l-2.854-.545-2.141,11-2.573,1.483L59.7,406.44l-.451,2.291L56.343,410.4l.864-4.432-2.854-.545L53,412.337l-6.291,3.643v1.3Z" transform="translate(16.739 7.022)" fill="#fff"/>
    <path id="Path_88" data-name="Path 88" d="M79.612,398.033l-.676-1.183L46.77,415.384l.094.15.6.357-.038.056.563.338,6.328-3.662,6.666,2.31.958-2.76-4.281-1.483,2.911-1.671,2.2.751.883-2.535,2.573-1.483,10.609,3.68.958-2.76-8.225-2.835,2.911-1.69,6.159,2.141.939-2.76-3.756-1.3Z" transform="translate(16.792 9.12)" fill="#c0e3ff"/>
    <path id="Path_89" data-name="Path 89" d="M46.788,407.989l-.038.075L78.9,426.635l.676-1.183-3.793-2.2,3.774-1.3L78.6,419.2l-6.159,2.122-2.911-1.69,8.225-2.836-.939-2.742L66.2,417.716l-2.573-1.483-.883-2.554-2.2.77-2.911-1.69,4.263-1.465-.939-2.76-6.666,2.31L48.008,407.2l-1.127.638Z" transform="translate(16.775 18.205)" fill="#fff"/>
    <path id="Path_90" data-name="Path 90" d="M46.735,407.81l.019.695H46.66v.657l6.347,3.662,1.333,6.91,2.854-.563-.845-4.432,2.892,1.69.451,2.291,2.629-.526,2.573,1.5,2.122,11,2.873-.544-1.652-8.544,2.911,1.69,1.239,6.385,2.854-.545-.751-3.906,3.793,2.178.695-1.183L46.829,407.66Z" transform="translate(16.696 18.609)" fill="#c0e3ff"/>
    <path id="Path_91" data-name="Path 91" d="M50.862,407.377a3.665,3.665,0,1,1-4.826-1.859A3.675,3.675,0,0,1,50.862,407.377Z" transform="translate(14.221 16.451)" fill="#c0e3ff"/>
  </g>
</svg>
