<svg id="Group_20" data-name="Group 20" xmlns="http://www.w3.org/2000/svg" width="80.803" height="49.917" viewBox="0 0 80.803 49.917">
  <path id="Path_105" data-name="Path 105" d="M361.449,251.86a9.783,9.783,0,0,0,1.562-5.293c0-.265-.026-.556-.026-.82a9.746,9.746,0,0,0-19.427,0h4.5a5.275,5.275,0,0,1,10.428,0,4.3,4.3,0,0,1,.079.82,5.309,5.309,0,0,1-5.293,5.293H320.69v4.473h32.554A9.807,9.807,0,0,0,361.449,251.86Z" transform="translate(-312.433 -236.668)" fill="#fff"/>
  <path id="Path_106" data-name="Path 106" d="M356.8,248.23H324.22V252.7H356.8A5.309,5.309,0,0,1,362.094,258a4.107,4.107,0,0,1-.079.82,5.275,5.275,0,0,1-10.428,0h-4.5a9.746,9.746,0,0,0,19.427,0c.026-.265.026-.556.026-.82a9.782,9.782,0,0,0-1.562-5.293A9.665,9.665,0,0,0,356.8,248.23Z" transform="translate(-306.62 -217.846)" fill="#fff"/>
  <path id="Path_107" data-name="Path 107" d="M384.822,236.75a13.645,13.645,0,0,0-13.207,16.912H376.3a9.11,9.11,0,1,1,8.5,5.823H317.57v4.473H384.8a13.45,13.45,0,0,0,10.057-4.473,13.6,13.6,0,0,0-10.031-22.735Z" transform="translate(-317.57 -236.75)" fill="#fff"/>
</svg>
